{"asset":{"generator":"glTF-Transform v3.10.0","version":"2.0","extras":{"author":"Larolei Low Poly (https://sketchfab.com/strix567)","license":"CC-BY-NC-4.0 (http://creativecommons.org/licenses/by-nc/4.0/)","source":"https://sketchfab.com/3d-models/japanese-gates-torii-low-poly-9d95c8e54c2b436f85a21b0f2288afe7","title":"Japanese Gates \"Torii\" (Low Poly)"}},"accessors":[{"type":"VEC3","componentType":5126,"count":160,"bufferView":0,"byteOffset":0},{"type":"VEC3","componentType":5126,"count":160,"max":[6.185009956359863,0.7815200090408325,6.924270153045654],"min":[-6.253339767456055,-0.7815200090408325,1.4697400331497192],"bufferView":0,"byteOffset":12},{"type":"SCALAR","componentType":5125,"count":288,"bufferView":1,"byteOffset":0},{"type":"VEC3","componentType":5126,"count":308,"bufferView":2,"byteOffset":0},{"type":"VEC3","componentType":5126,"count":308,"max":[8.492989540100098,1.3194999694824219,7.772870063781738],"min":[-8.561320304870605,-1.3194999694824219,-0.10993000119924545],"bufferView":2,"byteOffset":12},{"type":"SCALAR","componentType":5125,"count":504,"bufferView":3,"byteOffset":0},{"type":"VEC3","componentType":5126,"count":72,"bufferView":4,"byteOffset":0},{"type":"VEC3","componentType":5126,"count":72,"max":[4.827960014343262,1,1.4697400331497192],"min":[-4.827960014343262,-1,1.345289945602417],"bufferView":4,"byteOffset":12},{"type":"SCALAR","componentType":5125,"count":144,"bufferView":5,"byteOffset":0}],"bufferViews":[{"buffer":0,"byteOffset":0,"byteLength":3840,"byteStride":24,"target":34962},{"buffer":0,"byteOffset":3840,"byteLength":1152,"target":34963},{"buffer":1,"byteOffset":0,"byteLength":7392,"byteStride":24,"target":34962},{"buffer":1,"byteOffset":7392,"byteLength":2016,"target":34963},{"buffer":2,"byteOffset":0,"byteLength":1728,"byteStride":24,"target":34962},{"buffer":2,"byteOffset":1728,"byteLength":576,"target":34963}],"buffers":[{"uri":"Sketchfab_Scene_1.bin","byteLength":4992},{"uri":"Sketchfab_Scene_2.bin","byteLength":9408},{"uri":"Sketchfab_Scene_3.bin","byteLength":2304}],"materials":[{"name":"japanbuilding13","doubleSided":true,"pbrMetallicRoughness":{"baseColorFactor":[0.1607843137254902,0.027450980392156862,0.027450980392156862,1],"roughnessFactor":0.6,"metallicFactor":0.09927591463414634}},{"name":"hause_japan16","doubleSided":true,"pbrMetallicRoughness":{"baseColorFactor":[0.03529411764705882,0.043137254901960784,0.050980392156862744,1],"roughnessFactor":0.6,"metallicFactor":0.7700076219512195}},{"name":"japanbuilding17","doubleSided":true,"pbrMetallicRoughness":{"baseColorFactor":[0.14901960784313725,0.09803921568627451,0.07450980392156863,1],"roughnessFactor":0.6,"metallicFactor":0.1053734756097561}}],"meshes":[{"primitives":[{"attributes":{"NORMAL":0,"POSITION":1},"mode":4,"material":0,"indices":2}]},{"primitives":[{"attributes":{"NORMAL":3,"POSITION":4},"mode":4,"material":1,"indices":5}]},{"primitives":[{"attributes":{"NORMAL":6,"POSITION":7},"mode":4,"material":2,"indices":8}]}],"nodes":[{"name":"Cylinder_0","mesh":0},{"name":"Cylinder_1","mesh":1},{"name":"Cylinder_2","mesh":2},{"name":"Cylinder","translation":[0.036978960037231445,0.06779170781373978,0.03271999955177307],"scale":[0.4045499861240387,0.4045499861240387,1],"children":[0,1,2]},{"name":"Root","children":[3]},{"name":"Sketchfab_model","rotation":[-0.7071067690849298,0,0,0.7071067932881652],"children":[4]}],"scenes":[{"name":"Sketchfab_Scene","nodes":[5]}],"scene":0}